<svg xmlns="http://www.w3.org/2000/svg" viewBox="0 0 48 48"><defs><style>.cls-1{fill:#2b457b;}</style></defs><g id="レイヤー_2" data-name="レイヤー 2"><g id="layer_1" data-name="layer 1"><path class="cls-1" d="M11,48H1a1,1,0,0,1-1-1V39a1,1,0,0,1,1-1H11a1,1,0,0,1,1,1v8A1,1,0,0,1,11,48ZM2,46h8V40H2Z"/><path class="cls-1" d="M21,48H11a1,1,0,0,1-1-1V35a1,1,0,0,1,1-1H21a1,1,0,0,1,1,1V47A1,1,0,0,1,21,48Zm-9-2h8V36H12Z"/><path class="cls-1" d="M31,48H21a1,1,0,0,1-1-1V31a1,1,0,0,1,1-1H31a1,1,0,0,1,1,1V47A1,1,0,0,1,31,48Zm-9-2h8V32H22Z"/><path class="cls-1" d="M41,48H31a1,1,0,0,1-1-1V27a1,1,0,0,1,1-1H41a1,1,0,0,1,1,1V47A1,1,0,0,1,41,48Zm-9-2h8V28H32Z"/><path class="cls-1" d="M36,24a1,1,0,0,1-.71-.29L32.59,21H28a1,1,0,0,1-1-1V15.41l-2.71-2.7a1,1,0,0,1,0-1.42L27,8.59V4a1,1,0,0,1,1-1h4.59L35.29.29a1,1,0,0,1,1.42,0L39.41,3H44a1,1,0,0,1,1,1V8.59l2.71,2.7a1,1,0,0,1,0,1.42L45,15.41V20a1,1,0,0,1-1,1H39.41l-2.7,2.71A1,1,0,0,1,36,24Zm-7-5h4a1,1,0,0,1,.71.29L36,21.59l2.29-2.3A1.05,1.05,0,0,1,39,19h4V15a1,1,0,0,1,.29-.71L45.59,12l-2.3-2.29A1,1,0,0,1,43,9V5H39a1.05,1.05,0,0,1-.71-.29L36,2.41l-2.29,2.3A1,1,0,0,1,33,5H29V9a1,1,0,0,1-.29.71L26.41,12l2.3,2.29A1,1,0,0,1,29,15Z"/><path class="cls-1" d="M36,17a5,5,0,1,1,5-5A5,5,0,0,1,36,17Zm0-8a3,3,0,1,0,3,3A3,3,0,0,0,36,9Z"/><path class="cls-1" d="M2,36H0V1A1,1,0,0,1,1,0H26V2H2Z"/><rect class="cls-1" x="46" y="22" width="2" height="26"/><rect class="cls-1" x="1" y="8" width="22" height="2"/><rect class="cls-1" x="4" y="4" width="2" height="2"/><rect class="cls-1" x="8" y="4" width="2" height="2"/><rect class="cls-1" x="12" y="4" width="2" height="2"/></g></g></svg>